<svg height="512" viewBox="0 0 512 512" width="512" xmlns="http://www.w3.org/2000/svg" xmlns:xlink="http://www.w3.org/1999/xlink"><linearGradient id="linear-gradient" gradientUnits="userSpaceOnUse" x1="129.711" x2="433.827" y1="378.774" y2="74.657"><stop offset="0" stop-color="#35e0d1"/><stop offset="1" stop-color="#ee83ef"/></linearGradient><path d="m285.653 153.23a8 8 0 0 1 0 11.312 41.984 41.984 0 0 1 -59.313 0 8 8 0 0 1 11.313-11.312 25.982 25.982 0 0 0 36.688 0 8 8 0 0 1 11.312 0zm48.875-46.122-5.055 29.719h14.527a8 8 0 0 1 7.758 9.942l-5.508 22.058h21.75a8 8 0 0 1 7.586 10.532l-4.486 13.468h17.3a8 8 0 0 1 8 7.77 264.828 264.828 0 0 1 -35.89 141.254 215.8 215.8 0 0 0 -24.274 61.981l-3.789 17.043a34.635 34.635 0 0 1 -68.447-7.512v-53.363a8 8 0 0 0 -16 0v53.367a34.635 34.635 0 0 1 -68.446 7.512l-3.789-17.043a215.655 215.655 0 0 0 -24.273-61.977 264.54 264.54 0 0 1 -35.824-146.359l1.477-30.84a70.374 70.374 0 0 1 123.563-42.6c7.687 8.89 22.89 8.894 30.578 0a70.306 70.306 0 0 1 53.266-24.383c.586 0 1.171.031 1.757.07a8.682 8.682 0 0 1 6.235 2.957 8.22 8.22 0 0 1 1.984 6.404zm-14.528 45.719a8 8 0 0 1 -7.883-9.344l4.969-29.23a54.113 54.113 0 0 0 -33.686 18.247 36.207 36.207 0 0 1 -54.8 0 54.372 54.372 0 0 0 -95.469 32.918l-1.476 30.836a248.6 248.6 0 0 0 33.645 137.535 231.746 231.746 0 0 1 26.086 66.574l3.789 17.043a18.632 18.632 0 0 0 36.825-4.043v-53.363a24 24 0 0 1 48 0v53.367a18.632 18.632 0 0 0 36.82 4.043l3.789-17.043a231.649 231.649 0 0 1 26.086-66.571 248.789 248.789 0 0 0 33.813-124.965h-20.508a8 8 0 0 1 -7.586-10.531l4.484-13.469h-17.589l-17.018 17.019 12.362 18.544a8 8 0 0 1 -1 10.094l-13.653 13.652v12.687h-16v-16a8 8 0 0 1 2.344-5.656l11.356-11.363-9.985-14.981h-16.406l-13.656 13.657-11.312-11.313 16-16a7.994 7.994 0 0 1 5.659-2.344h20.687l20.092-20.092 4.971-19.908zm72-88h-16v40h16zm42.344 10.344-32 32 11.312 11.312 32-32zm21.656 53.656h-40v16h40z" fill="url(#linear-gradient)"/></svg>