<svg height="512" viewBox="0 0 512 512" width="512" xmlns="http://www.w3.org/2000/svg" xmlns:xlink="http://www.w3.org/1999/xlink"><linearGradient id="linear-gradient" gradientUnits="userSpaceOnUse" x1="63.645" x2="453.291" y1="528.723" y2="139.077"><stop offset="0" stop-color="#35e0d1"/><stop offset="1" stop-color="#ee83ef"/></linearGradient><path d="m150.142 165.78h211.7a8 8 0 0 0 7.929-6.929c.649-4.8 2.028-11.571 3.493-18.743 3.156-15.488 6.738-33.043 5.968-44.433a59.706 59.706 0 0 0 -104.761-34.989 24.411 24.411 0 0 1 -36.954 0 59.706 59.706 0 0 0 -104.765 34.989c-.77 11.39 2.812 28.945 5.968 44.433 1.465 7.172 2.844 13.942 3.493 18.743a8 8 0 0 0 7.929 6.929zm-1.429-69.027a43.71 43.71 0 0 1 76.695-25.613 40.4 40.4 0 0 0 61.172 0 43.71 43.71 0 0 1 76.695 25.613c.622 9.23-2.875 26.379-5.687 40.16-.926 4.539-1.82 8.926-2.539 12.867h-198.11c-.719-3.941-1.613-8.328-2.539-12.867-2.812-13.781-6.309-30.93-5.687-40.16zm68.668 5.941a8 8 0 0 1 9.226-13.07 54.141 54.141 0 0 0 60.3 1.547l2.813-1.774a8 8 0 0 1 8.547 13.524l-2.813 1.777a70.09 70.09 0 0 1 -78.074-2zm274.192 199.906-13.122-6.563a250.263 250.263 0 0 0 -110.815-26.266c.389-2.817.772-5.665 1.163-8.605l.844-6.316a8 8 0 0 0 -7.93-9.07h-18.289a56.089 56.089 0 0 0 -55.43-48h-64a56.089 56.089 0 0 0 -55.43 48h-18.289a8 8 0 0 0 -7.93 9.07l.844 6.316c.39 2.935.772 5.778 1.161 8.59h-.356a250.37 250.37 0 0 0 -124.157 33.165 8 8 0 0 0 -3.843 6.836v168a8 8 0 0 0 8 8h464a8 8 0 0 0 8-8v-168a8 8 0 0 0 -4.421-7.157zm-259.579-40.82a8 8 0 0 0 0-16h-47.194a40.069 40.069 0 0 1 39.192-32h64a40.048 40.048 0 0 1 40 40 8 8 0 0 0 8 8h16.582c-3.258 24.441-6.023 42.593-18.9 64.668a269.6 269.6 0 0 0 -30.352 77.488l-4.047 18.2a9.757 9.757 0 0 1 -19.281-2.117v-62.238a24 24 0 0 0 -48 0v62.242a9.757 9.757 0 0 1 -19.281 2.117l-4.047-18.2a269.6 269.6 0 0 0 -30.352-77.488c-12.879-22.075-15.644-40.227-18.9-64.668zm248 207.977h-448v-155.324a233.861 233.861 0 0 1 112-28.676h2.9c2.983 16.231 7.505 31.456 17.6 48.754a253.689 253.689 0 0 1 28.555 72.895l4.046 18.2a25.756 25.756 0 0 0 50.9-5.586v-62.239a8 8 0 0 1 16 0v62.242a25.756 25.756 0 0 0 50.9 5.586l4.046-18.2a253.689 253.689 0 0 1 28.555-72.895c10.093-17.3 14.615-32.523 17.6-48.754h2.023a234.121 234.121 0 0 1 104.181 24.591l8.7 4.352zm-224-215.977a8 8 0 0 1 8-8h16a8 8 0 0 1 0 16h-16a8 8 0 0 1 -8-7.999zm144-96h16v16h-16zm16-16h-16v-40h16zm-16 48h16v16h-16z" fill="url(#linear-gradient)"/></svg>