<svg height="512" viewBox="0 0 512 512" width="512" xmlns="http://www.w3.org/2000/svg" xmlns:xlink="http://www.w3.org/1999/xlink"><linearGradient id="linear-gradient" gradientUnits="userSpaceOnUse" x1="62.345" x2="471.602" y1="536.854" y2="127.596"><stop offset="0" stop-color="#35e0d1"/><stop offset="1" stop-color="#ee83ef"/></linearGradient><path d="m99.681 211.544a8 8 0 0 1 11.149-1.922 54.133 54.133 0 0 0 60.3 1.548l2.814-1.777a8 8 0 0 1 8.541 13.529l-2.813 1.777a70.084 70.084 0 0 1 -78.07-2.006 8 8 0 0 1 -1.921-11.149zm233.919 11.149a70.086 70.086 0 0 0 78.073 2l2.812-1.777a8 8 0 0 0 -8.545-13.527l-2.811 1.776a54.133 54.133 0 0 1 -60.3-1.548 8 8 0 1 0 -9.226 13.071zm162.4 25.307v239.193a8 8 0 0 1 -8 8h-464a8 8 0 0 1 -8-8v-239.193c0-1.229.32-22.652.975-32.327a59.707 59.707 0 0 1 104.765-34.991 24.408 24.408 0 0 0 36.952 0 59.668 59.668 0 0 1 97.525 10.343 59.668 59.668 0 0 1 97.524-10.344 24.407 24.407 0 0 0 36.951 0 59.708 59.708 0 0 1 104.767 34.989c.674 9.967.541 31.437.541 32.33zm-219.533 55.16h59.492.039.039 79.922.039.039 51.931a219.1 219.1 0 0 0 11.532-86.409 43.708 43.708 0 0 0 -76.7-25.613 40.407 40.407 0 0 1 -61.174 0 43.708 43.708 0 0 0 -76.692 25.613 219.121 219.121 0 0 0 11.533 86.409zm114.677 92.458-29.08 7.27 1.2 7.207 26.573-6.644zm-25.24 30.31.871 5.23h18.446l1.749-10.5zm-6.479-38.873 34.587-8.647 1.306-7.834-37.094 9.274zm39.129-35.9h-45.112l2.143 12.857 42.6-10.651zm9.444-32h-63.998v16h64zm-345.463 23.845a269.678 269.678 0 0 1 30.356 77.486l4.046 18.2a9.756 9.756 0 0 0 19.28-2.117v-62.242a24 24 0 1 1 48 0v62.243a9.756 9.756 0 0 0 19.28 2.117l4.045-18.2a269.682 269.682 0 0 1 30.358-77.487 220.15 220.15 0 0 0 29.6-126.246 43.707 43.707 0 0 0 -76.7-25.616 40.409 40.409 0 0 1 -61.175 0 43.706 43.706 0 0 0 -76.691 25.612 220.155 220.155 0 0 0 29.601 126.25zm417.465 136.193v-163.24a7.993 7.993 0 0 1 -6.394 3.207h-49.606v24a8 8 0 0 1 -8 8h-1.223l-.506 3.04a7.982 7.982 0 0 1 -1.948 11.685l-1.624 9.745a8 8 0 0 1 -.759 15.291l-1.867.467-1.312 7.873a8 8 0 0 1 3.179 15.66l-6.041 1.51-4.007 24.045a8 8 0 0 1 -7.892 6.682h-32a8 8 0 0 1 -7.892-6.684l-1.775-10.653-4.393 1.1a8 8 0 1 1 -3.88-15.522l5.634-1.409-1.2-7.207-.553.138a8 8 0 0 1 -3.88-15.523l1.794-.448-1.321-7.929a7.993 7.993 0 0 1 -2.47-14.818l-2.84-17.043h-1.224a8 8 0 0 1 -8-8v-24h-57.17a8 8 0 0 1 -7.5-5.221q-4.082-11.019-7.032-22.23a236.955 236.955 0 0 1 -24.576 59.35 253.741 253.741 0 0 0 -28.557 72.895l-4.045 18.2a25.756 25.756 0 0 1 -50.9-5.588v-62.239a8 8 0 0 0 -16 0v62.243a25.757 25.757 0 0 1 -50.9 5.587l-4.046-18.2a253.708 253.708 0 0 0 -28.555-72.9 238.014 238.014 0 0 1 -16.719-34.885v163.021zm-232-104.035h16v-16h-16zm-192 80h16v-16h-16zm72-136h16v-16h-16zm48 16h16v-16h-16zm-72 0h-16v16h16zm192 16h16v-16h-16zm0 48h16v-16h-16zm-48 32h16v-16h-16zm48 16h16v-16h-16zm144-96h16v-16h-16zm0 48h16v-16h-16zm0 48h16v-16h-16zm-16-303.165h16v-16h-16zm16-48h-16v16h16zm-16 16h-16v16h16zm32 16v-16h-16v16zm-120-40h-16v16h16zm0-48h-16v16h16zm-24 24h-16v16h16zm48 0h-16v16h16z" fill="url(#linear-gradient)"/></svg>