<svg height="512" viewBox="0 0 512 512" width="512" xmlns="http://www.w3.org/2000/svg" xmlns:xlink="http://www.w3.org/1999/xlink"><linearGradient id="linear-gradient" gradientUnits="userSpaceOnUse" x1="87.466" x2="538.051" y1="562.776" y2="112.191"><stop offset="0" stop-color="#35e0d1"/><stop offset="1" stop-color="#ee83ef"/></linearGradient><path d="m168.96 262.752a8 8 0 0 1 5.063-15.18 68.282 68.282 0 0 0 42.937 0 8 8 0 0 1 5.063 15.18 84.43 84.43 0 0 1 -53.063 0zm200.391-167.752-13.734-8.2-16.391 27.485 13.735 8.2zm-46.515 46.773 13.734 8.195 8.195-13.742-13.734-8.2zm173.164 170.221v176a8 8 0 0 1 -8 8h-464a8 8 0 0 1 -8-8v-176a8 8 0 0 1 5.891-7.719l34.25-9.343a424.258 424.258 0 0 1 43.713-9.439 151.458 151.458 0 0 1 -3.893-54.878 43.539 43.539 0 0 1 76.219-23.531 30.8 30.8 0 0 0 46.625 0 43.538 43.538 0 0 1 76.219 23.535 151.431 151.431 0 0 1 -3.855 54.727c6.211.992 12.4 2.1 18.565 3.368l23-38.576-6.871-4.1a8 8 0 0 1 -2.781-10.969l12.289-20.616-6.868-4.095a7.987 7.987 0 0 1 -2.773-10.969l32.781-54.968 16.391-27.485 16.398-27.481a7.99 7.99 0 0 1 10.961-2.774l20.619 12.3 8.2-13.746-20.619-12.296a8 8 0 0 1 -2.781-10.969l16.382-27.484a8.012 8.012 0 0 1 4.914-3.656 7.921 7.921 0 0 1 6.055.882l54.969 32.778a8 8 0 0 1 2.781 10.969l-16.381 27.484a8 8 0 0 1 -10.968 2.773l-20.621-12.294-8.2 13.746 20.612 12.291a7.985 7.985 0 0 1 2.777 10.968l-16.391 27.485-16.39 27.488-32.782 54.969a7.993 7.993 0 0 1 -10.961 2.774l-6.869-4.1-12.287 20.611a8 8 0 0 1 -10.969 2.774l-6.875-4.1-20.351 34.125c3.248.8 6.5 1.6 9.726 2.479l33.219 9.062h118.93a8 8 0 0 1 8 8zm-70.477-248.7 41.227 24.583 8.187-13.743-41.226-24.582zm-40.976 68.712-8.2 13.742 41.227 24.582 8.2-13.742zm43.873-11.1-8.2 13.744 13.744 8.2 8.2-13.744zm-35.679-2.643 13.746 8.2 8.2-13.744-13.746-8.2zm-49.171 82.454 41.23 24.583 24.587-41.228-41.227-24.583zm19.289 30.129-13.742-8.192-8.188 13.746 13.743 8.192zm-247.071 52.39a423.931 423.931 0 0 1 51.922-3.242h56.579a423.966 423.966 0 0 1 50.94 3.128 135.541 135.541 0 0 0 3.9-50.694 27.543 27.543 0 0 0 -48.218-14.887 46.759 46.759 0 0 1 -35.411 16.215h-.007a46.747 46.747 0 0 1 -35.422-16.219 27.546 27.546 0 0 0 -48.219 14.891 135.463 135.463 0 0 0 3.936 50.808zm103.7 51.09v45.762a10.241 10.241 0 0 0 20.086 2.816l1.851-6.484a551.127 551.127 0 0 1 26.078-71.832l.821-1.832c.585-1.318 1.078-2.669 1.62-4a407.861 407.861 0 0 0 -45.659-2.759h-56.575a407.935 407.935 0 0 0 -46.627 2.856c.533 1.3 1.014 2.628 1.588 3.918l.813 1.835a548.927 548.927 0 0 1 26.07 71.817l1.852 6.484a10.241 10.241 0 0 0 20.086-2.816v-45.765a24 24 0 0 1 48 0zm260.512-14.332h-112a8.052 8.052 0 0 1 -2.11-.281l-34.25-9.344c-4.695-1.28-9.458-2.256-14.192-3.367l-7.855 13.172a8 8 0 1 1 -13.734-8.2l5.123-8.589c-4.869-.932-9.763-1.708-14.661-2.462-1.051 2.806-2.156 5.594-3.376 8.341l-.82 1.832a533.514 533.514 0 0 0 -25.305 69.718l-1.852 6.481a26.244 26.244 0 0 1 -51.476-7.211v-45.758a8 8 0 0 0 -16 0v45.762a26.241 26.241 0 0 1 -51.469 7.215l-1.86-6.492a530.867 530.867 0 0 0 -25.312-69.723l-.813-1.836c-1.195-2.689-2.275-5.42-3.308-8.166a407.9 407.9 0 0 0 -44.379 9.283l-28.351 7.731v161.89h448zm-104-32h16v-16h-16zm48 0v-16h-16v16zm16 0h32v-16h-32z" fill="url(#linear-gradient)"/></svg>