<svg height="512" viewBox="0 0 512 512" width="512" xmlns="http://www.w3.org/2000/svg" xmlns:xlink="http://www.w3.org/1999/xlink"><linearGradient id="linear-gradient" gradientUnits="userSpaceOnUse" x1="81.347" x2="446.21" y1="476.655" y2="111.792"><stop offset="0" stop-color="#35e0d1"/><stop offset="1" stop-color="#ee83ef"/></linearGradient><path d="m232.843 227.571a8 8 0 0 1 3.578-10.735 44.019 44.019 0 0 1 39.157 0 8 8 0 0 1 -7.157 14.313 27.9 27.9 0 0 0 -24.843 0 8 8 0 0 1 -10.735-3.578zm190.266-2.133a43.406 43.406 0 0 0 6.875-.547 8 8 0 0 0 -2.547-15.8 27.9 27.9 0 0 1 -23.7-7.437 8 8 0 1 0 -11.109 11.511 44.029 44.029 0 0 0 30.481 12.273zm-297.453-4.824a44.019 44.019 0 0 0 -39.157 0 8 8 0 1 0 7.156 14.312 27.9 27.9 0 0 1 24.844 0 8 8 0 1 0 7.157-14.312zm370.344 51.379v136a8 8 0 0 1 -8 8h-464a8 8 0 0 1 -8-8v-128a8 8 0 0 1 6.906-7.926l4.2-.579a193.419 193.419 0 0 1 2.424-85.968 32.662 32.662 0 0 1 58.485-10.332 21.651 21.651 0 0 0 18.055 9.472h.007a21.684 21.684 0 0 0 18.071-9.476 32.611 32.611 0 0 1 56.355 4.63 32.637 32.637 0 0 1 56.762-5.47 21.667 21.667 0 0 0 18.063 9.484h.007a21.653 21.653 0 0 0 18.063-9.48 32.658 32.658 0 0 1 58.477 10.336c.643 2.474 1.163 4.977 1.706 7.475a192.09 192.09 0 0 1 15.786-31.4 32.652 32.652 0 0 1 58.883 7.653 21.954 21.954 0 0 0 34.476 10.816 32.661 32.661 0 0 1 52.7 27.371 193.214 193.214 0 0 1 -11.664 56.919l5.054.523a8 8 0 0 1 7.184 7.952zm-158.07-34.493q-.122 5.444-.552 10.872l129.876 13.437a177.236 177.236 0 0 0 12.191-56 16.654 16.654 0 0 0 -26.875-13.969 37.955 37.955 0 0 1 -59.6-18.7 16.66 16.66 0 0 0 -30.04-3.9 177.539 177.539 0 0 0 -25 68.26zm-58.594 56.255v49.535a6.464 6.464 0 0 0 12.406 2.543l11.234-26.223a236.852 236.852 0 0 0 13.5-41.9l1.391-6.266c.651-2.927 1.19-5.878 1.689-8.834l-4.853-.5a489.68 489.68 0 0 0 -116.891 1.988l-6.255.863c.4 2.165.761 4.336 1.239 6.485l1.391 6.266a236.87 236.87 0 0 0 13.5 41.9l11.242 26.227a6.464 6.464 0 0 0 12.406-2.543v-49.545a24 24 0 1 1 48 0zm-149.259.835v49.536a6.464 6.464 0 0 0 12.407 2.543l11.242-26.227a237.609 237.609 0 0 0 13.492-41.895l1.406-6.277c.313-1.411.535-2.84.812-4.258l-49.734 6.86a23.968 23.968 0 0 1 10.375 19.714zm206.462 3.547 2.867 28.4a6.461 6.461 0 0 0 12.594 1.276l14.836-47.262a23.784 23.784 0 0 1 8.815-12.139l-40.085-4.147a237.488 237.488 0 0 0 .973 33.868zm76.094-3.207-14.833 47.254a6.467 6.467 0 0 0 11.078 6.149l18.578-21.661a238.076 238.076 0 0 0 25.43-35.933l3.2-5.559c1.512-2.623 2.924-5.3 4.3-8l-52.936-5.48a23.931 23.931 0 0 1 5.183 23.226zm-218.36-106.215a176.67 176.67 0 0 0 -5.586 40.257c.059 2.223.035 4.444.017 6.667.062 4.5.261 8.988.665 13.466l6.255-.862a504.7 504.7 0 0 1 120.719-2.051l4.436.459.025-.3c.284-3.3.691-6.592 1.146-9.875a176.932 176.932 0 0 0 -5.56-47.77 16.652 16.652 0 0 0 -29.82-5.269 37.973 37.973 0 0 1 -31.235 16.386h-.007a37.956 37.956 0 0 1 -31.228-16.381 16.657 16.657 0 0 0 -29.828 5.273zm-151.304 80.585 128.963-17.788c.519-5.256.732-10.535.781-15.816-.029-2.245-.082-4.488-.033-6.732a176.574 176.574 0 0 0 -5.548-39.412 16.653 16.653 0 0 0 -29.82-5.277 37.964 37.964 0 0 1 -31.235 16.387h-.007a37.953 37.953 0 0 1 -31.227-16.383 16.657 16.657 0 0 0 -29.828 5.273 177.2 177.2 0 0 0 -2.046 79.748zm3.544 15.664a238.292 238.292 0 0 0 11.916 35.479l11.242 26.227a6.464 6.464 0 0 0 12.406-2.547v-49.537a23.769 23.769 0 0 1 5.674-15.311zm433.487-5.756-2.717-.282c-2.271 4.837-4.669 9.614-7.338 14.242l-3.2 5.559a253.23 253.23 0 0 1 -27.148 38.36l-18.579 21.66a22.429 22.429 0 0 1 -23.773 6.808h-.008a22.5 22.5 0 0 1 -14.7-28.16l14.836-47.262a8 8 0 1 0 -15.266-4.789l-14.842 47.256a22.463 22.463 0 0 1 -43.781-4.461l-1.349-13.359q-2.1 5.622-4.456 11.129l-11.234 26.222a22.462 22.462 0 0 1 -43.11-8.843v-49.537a8 8 0 1 0 -16 0v49.539a22.463 22.463 0 0 1 -43.109 8.847l-11.242-26.226a252.773 252.773 0 0 1 -12.179-35.658 252.521 252.521 0 0 1 -12.376 36.486l-11.242 26.234a22.463 22.463 0 0 1 -43.11-8.851v-49.536a8 8 0 0 0 -16 0v49.536a22.464 22.464 0 0 1 -43.109 8.855l-11.242-26.234a254.123 254.123 0 0 1 -11.726-33.818v107.068h448zm-162.532-143.626 24 8a8 8 0 0 0 5.063-15.179l-24-8a8 8 0 0 0 -5.063 15.179zm42.946-21.058a8 8 0 1 0 15.172-5.063l-8-24a8 8 0 1 0 -15.172 5.063zm41.562 20.347a7.978 7.978 0 0 0 5.657-2.343l24-24a8 8 0 1 0 -11.313-11.313l-24 24a8 8 0 0 0 5.656 13.656zm-225.976 241.122h16v-16h-16zm72 8h16v-16h-16zm80-8h16v-16h-16zm112 0h16v-16h-16zm-344 8h16v-16h-16z" fill="url(#linear-gradient)"/></svg>