<svg height="512" viewBox="0 0 512 512" width="512" xmlns="http://www.w3.org/2000/svg" xmlns:xlink="http://www.w3.org/1999/xlink"><linearGradient id="linear-gradient" gradientUnits="userSpaceOnUse" x1="105.164" x2="406.821" y1="425.165" y2="123.507"><stop offset="0" stop-color="#35e0d1"/><stop offset="1" stop-color="#ee83ef"/></linearGradient><path d="m362.337 277.649a8 8 0 0 1 11.312-11.313l5.656 5.657h17.375l5.657-5.657a8 8 0 0 1 11.312 11.313l-8 8a8 8 0 0 1 -5.656 2.344h-24a8 8 0 0 1 -5.656-2.344zm-146.344 21.351v-3.011a8 8 0 0 1 8-8h64a8 8 0 0 1 8 8v3.011a37.032 37.032 0 0 1 -36.993 36.993h-6.023a37.031 37.031 0 0 1 -36.984-36.993zm16.6 4.989a21.029 21.029 0 0 0 20.391 16h6.016a21.029 21.029 0 0 0 20.391-16zm-126.257-18.34a8 8 0 0 0 5.656 2.344h24a8 8 0 0 0 5.657-2.344l8-8a8 8 0 0 0 -11.313-11.313l-5.656 5.657h-17.375l-5.656-5.657a8 8 0 0 0 -11.313 11.313zm-82.236 3.66-8-48a7.984 7.984 0 0 1 1.234-5.754l48-72a8 8 0 0 1 4.125-3.152l24-8a8 8 0 0 1 9.688 4.011l16 32a8 8 0 0 1 -2.719 10.235l-20.436 13.625v24.626l5.172-1.727a61.871 61.871 0 0 1 19.574-3.175h10.411a61.692 61.692 0 0 1 39.981 14.748 47.548 47.548 0 0 1 78.117-16.807 9.552 9.552 0 0 0 13.492 0 47.548 47.548 0 0 1 78.117 16.807 61.688 61.688 0 0 1 39.981-14.748h10.41a61.871 61.871 0 0 1 19.574 3.175l5.172 1.727v-24.626l-20.438-13.625a8 8 0 0 1 -2.718-10.235l16-32a8 8 0 0 1 9.687-4.011l24 8a8 8 0 0 1 4.125 3.152l48 72a7.984 7.984 0 0 1 1.235 5.754l-8 48a8 8 0 0 1 -3.09 5.082l-32 24a7.889 7.889 0 0 1 -1.223.758l-32 16a8.025 8.025 0 0 1 -3.578.844 7.875 7.875 0 0 1 -.8-.039l-72.407-7.241a128.93 128.93 0 0 1 -23.3 58.6l-4.6 23.008a26.968 26.968 0 0 1 -53.14-1.476l-4.54-31.8a1.271 1.271 0 0 0 -2.429.008l-4.539 31.789a26.968 26.968 0 0 1 -53.141 1.48l-4.6-23.008a128.929 128.929 0 0 1 -23.3-58.6l-72.408 7.241a7.861 7.861 0 0 1 -.8.039 8.029 8.029 0 0 1 -3.578-.844l-32-16a7.833 7.833 0 0 1 -1.222-.758l-32-24a7.994 7.994 0 0 1 -3.089-5.083zm319.893-22.789v46.234l70.492 7.047 29.285-14.64 28.86-21.645 6.953-41.719-44.723-67.082-14.816-4.937-9.739 19.476 18.125 12.082a8 8 0 0 1 3.563 6.657v40a8 8 0 0 1 -10.531 7.589l-15.7-5.234a45.829 45.829 0 0 0 -14.512-2.355h-10.41a45.793 45.793 0 0 0 -36.847 18.527zm-160-2.527v48a112.728 112.728 0 0 0 22.4 67.2 8 8 0 0 1 1.445 3.231l4.95 24.754a10.971 10.971 0 0 0 21.617-.6l4.539-31.793a17.224 17.224 0 0 1 34.1-.008l4.54 31.805a10.971 10.971 0 0 0 21.617.6l4.949-24.754a8.008 8.008 0 0 1 1.445-3.231 112.722 112.722 0 0 0 22.4-67.2v-48.4a31.6 31.6 0 0 0 -53.942-22.343 25.563 25.563 0 0 1 -36.117 0 31.6 31.6 0 0 0 -53.941 22.343zm-151.593-22.193 6.954 41.719 28.859 21.645 29.287 14.636 70.492-7.047v-46.233a45.793 45.793 0 0 0 -36.843-18.527h-10.411a45.818 45.818 0 0 0 -14.511 2.355l-15.7 5.234a8 8 0 0 1 -10.532-7.589v-40a8 8 0 0 1 3.563-6.657l18.125-12.082-9.738-19.476-14.817 4.937zm127.59-25.8a7.979 7.979 0 0 0 5.657-2.344 46.33 46.33 0 0 1 32.972-13.656h1.372a8 8 0 0 0 0-16h-1.372a62.218 62.218 0 0 0 -44.285 18.343 8 8 0 0 0 5.656 13.657zm153.372-32h-1.371a8 8 0 0 0 0 16h1.371a46.334 46.334 0 0 1 32.973 13.656 8 8 0 0 0 11.312-11.313 62.218 62.218 0 0 0 -44.283-18.35zm-169.372 168h-16v16h16zm-32 0h-16v16h16zm-64 16h32v-16h-32zm336-16h-16v16h16zm32 0h-16v16h16zm48 0h-32v16h32zm-175.759-232.426a8 8 0 0 1 5.156-7.179 45.952 45.952 0 0 0 25-22.75l2.547-5.18a8 8 0 0 1 7.176-4.473 8.01 8.01 0 0 1 7.18 4.469l2.55 5.184a45.929 45.929 0 0 0 24.993 22.75 8 8 0 0 1 .554 14.722l-3.558 1.668a46.4 46.4 0 0 0 -21.164 20.145l-3.489 6.574a8 8 0 0 1 -14.132 0l-3.489-6.578a46.378 46.378 0 0 0 -21.164-20.137l-3.558-1.672a8 8 0 0 1 -4.602-7.543zm24.669.426a62.692 62.692 0 0 1 15.21 15.52 62.692 62.692 0 0 1 15.207-15.52 61.7 61.7 0 0 1 -15.207-15.39 61.7 61.7 0 0 1 -15.21 15.39zm-96.672 31.813a8 8 0 0 1 5.156-7.18 45.944 45.944 0 0 0 25-22.75l2.547-5.18a8 8 0 0 1 7.176-4.472 8.008 8.008 0 0 1 7.18 4.469l2.55 5.183a45.922 45.922 0 0 0 24.993 22.75 8 8 0 0 1 .554 14.723l-3.558 1.668a46.4 46.4 0 0 0 -21.164 20.144l-3.489 6.579a8 8 0 0 1 -14.133 0l-3.488-6.575a46.383 46.383 0 0 0 -21.164-20.148l-3.559-1.668a8 8 0 0 1 -4.598-7.547zm24.668.426a62.669 62.669 0 0 1 15.211 15.519 62.669 62.669 0 0 1 15.211-15.519 61.713 61.713 0 0 1 -15.211-15.4 61.73 61.73 0 0 1 -15.207 15.396zm-8.896 127.761a8 8 0 1 0 -8-8 8 8 0 0 0 8 8zm48 0a8 8 0 1 0 -8-8 8 8 0 0 0 8 8z" fill="url(#linear-gradient)"/></svg>