<svg height="511pt" viewBox="-77 0 511 511.99998" width="511pt" xmlns="http://www.w3.org/2000/svg" xmlns:xlink="http://www.w3.org/1999/xlink"><linearGradient id="a" gradientTransform="matrix(.394783 0 0 -.394783 -77.255348 508.476333)" gradientUnits="userSpaceOnUse" x1="196.9574" x2="1099.957" y1="639.5314" y2="639.5314"><stop offset="0" stop-color="#41dfd0"/><stop offset="1" stop-color="#ee83ef"/></linearGradient><path d="m201.179688 240.578125c2.109374 4.183594.425781 9.289063-3.761719 11.398437l-1.789063.898438c-11.96875 5.941406-26.027344 5.941406-37.992187 0l-1.808594-.898438c-4.25-1.980468-6.085937-7.03125-4.105469-11.28125 1.980469-4.246093 7.03125-6.085937 11.277344-4.105468.160156.074218.3125.152344.464844.234375l1.792968.902343c7.167969 3.542969 15.578126 3.542969 22.746094 0l1.757813-.851562c4.175781-2.128906 9.285156-.472656 11.417969 3.703125zm-30.558594-19.652344c3.371094 3.257813 8.746094 3.164063 12.003906-.207031 3.175781-3.289062 3.175781-8.503906 0-11.792969l-4.160156-4.160156 5.753906-11.5c2.097656-4.195313.398438-9.296875-3.796875-11.394531s-9.296875-.398438-11.394531 3.796875l-8.488282 16.976562c-1.632812 3.269531-.988281 7.210938 1.59375 9.792969zm186.367187 163.757813v118.828125c0 4.6875-3.800781 8.488281-8.488281 8.488281h-339.511719c-4.6875 0-8.488281-3.800781-8.488281-8.488281v-118.828125c.039062-29.246094 21.351562-54.113282 50.246094-58.625l-4.320313-12.972656c-5.257812-15.769532-4.546875-32.917969 1.996094-48.199219 3.53125-7.726563 6.484375-15.703125 8.828125-23.871094 1.769531-6.773437 2.664062-13.746094 2.664062-20.75v-107.195313c.070313-60.910156 49.429688-110.269531 110.34375-110.339843h16.976563c19.09375 0 37.859375 4.996093 54.429687 14.488281 5.226563-11.066406 16.640626-17.859375 28.859376-17.171875 15.316406 1.234375 27.90625 12.574219 30.726562 27.679687l2.191406 12.050782c2.617188 2.097656 4.796875 4.695312 6.40625 7.640625.09375.160156.128906.332031.210938.492187l2.496094.730469c17.71875 5.164063 27.894531 23.714844 22.730468 41.433594-3.285156 11.261719-12.234375 19.976562-23.578125 22.964843l-14.132812 3.683594v103.550782c0 7.003906.898437 13.976562 2.664062 20.753906 2.347657 8.164062 5.296875 16.140625 8.828125 23.867187 6.542969 15.28125 7.253906 32.433594 1.996094 48.203125l-4.320312 12.96875c28.890624 4.511719 50.203124 29.375 50.246093 58.617188zm-67.902343-59.414063 5.855468-17.554687c3.945313-11.828125 3.414063-24.6875-1.492187-36.148438-3.871094-8.496094-7.09375-17.273437-9.640625-26.253906-2.136719-8.175781-3.214844-16.59375-3.210938-25.046875v-3.472656c-4.636718 4.242187-10.6875 6.601562-16.972656 6.621093h-.503906c-3.390625 29.863282-23.945313 54.976563-52.546875 64.210938v25.605469l6.238281-3.742188c4.019531-2.414062 9.234375-1.113281 11.648438 2.90625.792968 1.324219 1.214843 2.839844 1.210937 4.386719v8.488281zm-161.269532 0v-8.488281c.003906-4.6875 3.804688-8.488281 8.492188-8.488281 1.539062 0 3.046875.421875 4.367187 1.210937l1.996094 1.199219v-24.617187c-26.492187-10.296876-45.09375-34.433594-48.304687-62.671876h-.5c-6.285157-.019531-12.339844-2.378906-16.976563-6.621093v3.472656c0 8.453125-1.085937 16.871094-3.226563 25.046875-2.546874 8.980469-5.773437 17.757812-9.640624 26.253906-4.90625 11.460938-5.4375 24.320313-1.496094 36.148438l5.875 17.550781h59.414062zm-33.949218-144.296875c-4.6875 0-8.488282 3.800782-8.488282 8.488282v8.488281c0 4.6875 3.800782 8.488281 8.488282 8.488281zm178.242187 16.976563v-8.488281c0-4.6875-3.796875-8.488282-8.484375-8.488282v25.464844c4.6875 0 8.484375-3.800781 8.484375-8.488281zm-25.460937-33.949219h-17.640626c-12.882812.019531-25.074218-5.84375-33.101562-15.925781l-17.160156-21.414063-17.128906 21.414063c-8.027344 10.082031-20.21875 15.945312-33.105469 15.925781h-17.667969v50.925781c.035156 32.796875 26.613281 59.378907 59.414062 59.414063h16.976563c32.796875-.035156 59.375-26.617188 59.414063-59.414063zm-87 127.316406v29.570313l19.097656 11.460937 14.851562-8.914062v-32.117188zm52.511718 42.4375c.054688-.640625.183594-1.273437.382813-1.882812l-17.296875 10.371094 17.449218 10.476562v-16.332031c-.320312-.84375-.5-1.730469-.535156-2.632813zm-67.367187 18.964844 17.453125-10.476562-17.300782-10.371094c.199219.613281.324219 1.242187.375 1.882812-.03125.902344-.210937 1.789063-.527343 2.632813zm-38.390625-10.476562 8.8125 22.019531c13.210937 33.0625 31.777344 63.722656 54.957031 90.75l8.964844 10.457031c33.121093-35.167969 58.007812-77.257812 72.867187-123.226562h-22.332031v25.464843c.003906 4.6875-3.792969 8.492188-8.480469 8.496094-1.542968 0-3.058594-.417969-4.378906-1.214844l-29.578125-17.765625v27.441406c0 4.6875-3.800781 8.488282-8.488281 8.488282s-8.488282-3.800782-8.488282-8.488282v-27.441406l-29.582031 17.75c-4.015625 2.414063-9.230469 1.113282-11.644531-2.90625-.792969-1.316406-1.210938-2.824218-1.214844-4.359375v-25.464843zm205.542968-275.402344c-2.546874 8.679687-9.515624 15.347656-18.300781 17.507812.664063 2.417969 1.316407 4.832032 1.808594 7.316406l3.871094 7.046876 8.097656-2.132813c7.417969-2 12.484375-8.851563 12.222656-16.53125-.226562-5.40625-3.105469-10.351563-7.699219-13.207031zm-55.917968-39.894532c5.21875 4.191407 10.046875 8.84375 14.429687 13.902344 4.03125-3.78125 9.226563-6.085937 14.734375-6.535156l-.644531-3.539062c-1.398437-7.476563-7.59375-13.113282-15.167969-13.792969-6.191406-.074219-11.664062 4.011719-13.351562 9.964843zm-179.136719 86.125v57.558594c4.636719-4.246094 10.691406-6.609375 16.976563-6.628906v-8.488281c0-4.6875 3.800781-8.488281 8.488281-8.488281h26.125c7.738281.019531 15.058593-3.5 19.878906-9.558594l23.765625-29.707032c3.191406-3.660156 8.746094-4.042968 12.40625-.851562.300781.265625.585938.546875.851562.851562l23.765626 29.707032c4.816406 6.058594 12.140624 9.578125 19.878906 9.558594h26.109375c4.6875 0 8.488281 3.800781 8.488281 8.488281v8.488281c6.285156.019531 12.335938 2.382812 16.972656 6.628906v-57.558594c-.03125-5.300781-.511718-10.589843-1.441406-15.8125l-9.515625-17.3125-31.523437-39.980468c-1.347657-1.742188-1.957032-3.941406-1.699219-6.128906-14.742188-9.230469-31.789063-14.128907-49.183594-14.128907h-16.976563c-51.539062.058594-93.304687 41.824219-93.367187 93.363281zm263.121094 271.613282c-.027344-23.429688-19.011719-42.414063-42.4375-42.441406h-27.695313c-16.375 53.511718-45.601562 102.199218-85.132812 141.808593-1.589844 1.589844-3.75 2.484375-6 2.484375h-.332032c-2.363281-.082031-4.578124-1.15625-6.113281-2.953125l-15.023437-17.527343c-24.390625-28.433594-43.929688-60.695313-57.824219-95.488282l-11.332031-28.316406h-28.207032c-23.425781.03125-42.410156 19.015625-42.4375 42.441406v110.339844h38.355469c-6.875-19.550781-5.554687-41.050781 3.660157-59.617188l.898437-1.800781-.101563-31.894531c-.027343-4.6875 3.753907-8.511719 8.441407-8.535156 4.6875-.027344 8.507812 3.753906 8.535156 8.441406l.101563 33.949219c0 1.320312-.308594 2.625-.902344 3.804687l-1.789063 3.589844c-8.128906 16.34375-8.328125 35.511719-.542969 52.023438h209.566407c7.351562-16.667969 7.140625-35.695313-.578125-52.195313l-1.699219-3.589844c-.550781-1.128906-.839844-2.371093-.847656-3.632812v-33.949219c0-4.6875 3.800781-8.488281 8.488281-8.488281s8.488281 3.800781 8.488281 8.488281v32.050781l.847657 1.867188c8.699218 18.636719 9.917968 39.90625 3.394531 59.414062h38.222656v-110.273437zm-127.316407-212.195313c-4.6875 0-8.488281 3.796875-8.488281 8.484375v8.488282c0 4.6875 3.800781 8.488281 8.488281 8.488281s8.488282-3.800781 8.488282-8.488281v-8.488282c0-4.6875-3.800782-8.484375-8.488282-8.484375zm-76.390624 0c-4.6875 0-8.488282 3.796875-8.488282 8.484375v8.488282c0 4.6875 3.800782 8.488281 8.488282 8.488281s8.488281-3.800781 8.488281-8.488281v-8.488282c0-4.6875-3.800781-8.484375-8.488281-8.484375zm0 0" fill="url(#a)"/></svg>